<svg width="206" height="218" viewBox="0 0 206 218" fill="none" xmlns="http://www.w3.org/2000/svg">
<path d="M37.687 0.388539C16.5839 3.70795 1.38813 21.5186 3.91456 40.0073C4.43471 43.8264 6.32953 49.3231 8.07574 52.2142C10.0449 55.4622 14.3918 59.3884 17.8842 61.1016C23.5687 63.9213 28.1757 64.9564 35.0863 64.9564C37.7613 64.9564 39.9905 65.0278 39.9905 65.1349C39.9905 65.5632 36.8696 70.6316 32.9685 76.5922C24.7205 89.0846 22.2683 93.5462 19.8162 100.506C17.2898 107.573 16.7696 110.821 16.8068 119.245C16.8068 125.919 16.8811 127.133 17.6613 130.131C22.0454 147.049 34.1574 158.792 49.799 161.219C52.5484 161.612 60.9079 161.505 63.1371 160.969C64.1031 160.755 64.1402 160.791 64.1402 162.04V163.325H106.086C145.692 163.325 148.033 163.29 148.293 162.683C149.407 160.041 149.11 158.293 147.141 156.222C145.766 154.723 142.385 153.01 139.116 152.082L136.998 151.511L138.707 149.12C142.088 144.408 144.02 138.733 144.02 133.593V130.845H145.803C148.441 130.845 152.825 129.667 156.132 128.061C159.067 126.633 161.631 124.956 165.978 121.601C167.278 120.601 168.467 119.78 168.653 119.78C168.838 119.78 170.399 120.601 172.071 121.565C176.975 124.42 179.167 124.92 182.437 123.992C184.777 123.314 187.675 120.423 188.381 117.996L188.976 116.033L190.573 116.14C195.812 116.461 198.524 110.322 195.589 104.789C194.772 103.29 193.471 101.755 191.651 100.114C189.347 98.0435 189.013 97.6151 189.607 97.4367C192.84 96.3302 199.341 93.7247 201.608 92.6539C205.658 90.6908 205.843 90.4052 205.546 87.0501C204.654 77.1633 203.168 71.4525 199.193 62.4936C194.066 51.0363 191.576 47.824 184.703 43.9335C181.359 42.0418 170.77 36.8307 168.095 35.7956C165.123 34.6177 159.996 25.5161 159.996 21.4472C159.996 20.5549 160.405 18.7702 160.925 17.4853C161.445 16.1647 161.817 15.0225 161.742 14.9868C161.482 14.7013 156.689 18.1991 154.46 20.305C148.887 25.5518 145.989 31.6552 145.692 38.6867L145.543 42.0418L143.388 44.219C139.339 48.3237 136.144 52.8566 135.103 56.0333C134.695 57.2825 134.36 57.5324 131.611 58.7816C129.902 59.5312 127.412 60.3164 125.963 60.5662C123.549 60.9232 122.954 60.8518 115.895 59.4955C111.771 58.6745 106.346 57.7108 103.894 57.3182C98.5814 56.4973 88.6243 55.7477 87.5097 56.069C86.8781 56.2831 86.7666 56.2117 86.9524 55.6407C88.9587 49.5015 89.6274 40.971 88.5128 35.0103C85.2805 17.3782 72.0539 4.4218 53.5515 0.745465C49.4275 -0.0754642 41.6996 -0.253927 37.687 0.388539ZM50.6164 3.4581C65.9236 5.49258 78.4071 15.1653 83.5714 29.014C86.4694 36.7593 86.5809 46.8603 83.8687 54.5342L83.1999 56.3902L80.8221 56.8185C70.6421 58.6388 57.8613 68.2758 49.3903 80.5184C45.8979 85.5154 43.9659 89.8699 42.7027 95.5093C41.6624 100.114 41.7739 112.213 42.8885 117.032C44.5232 124.17 47.124 130.31 50.6907 135.485C54.7033 141.339 63.3971 150.19 68.1899 153.331L70.6049 154.866L68.8587 155.294C67.8927 155.544 66.7781 156.008 66.4066 156.329C65.4406 157.186 62.7655 157.9 58.9016 158.364C53.0314 159.042 46.3066 157.829 40.4363 154.973C30.7393 150.262 23.0857 140.018 20.7079 128.454C18.3672 117.139 20.1506 105.932 26.2066 93.9031C28.1757 89.9412 29.6247 87.6212 38.3929 74.0937C48.1271 59.1385 51.4338 46.896 48.5729 36.1882C47.5698 32.5119 46.901 31.2626 45.7864 31.2626C44.1145 31.2626 43.8545 32.1193 44.7461 34.7605C46.0837 38.7224 46.418 41.1138 46.158 45.5397C45.9351 50.0369 45.0805 53.7847 43.2972 58.2819L42.1082 61.2087L40.3992 61.4942C36.9811 62.0653 29.2532 61.7441 26.058 60.9589C18.4415 58.9958 13.2772 55.141 10.1935 49.1089C7.96428 44.7901 7.33267 42.3987 7.03545 37.5088C6.88683 34.5107 6.96114 32.8331 7.44413 30.5488C10.4164 16.4145 23.6059 5.20704 39.4332 3.31533C41.8853 2.9941 47.9042 3.10118 50.6164 3.4581ZM157.321 25.0164C158.213 28.4072 163.228 36.9377 164.826 37.6873C165.123 37.8658 168.987 39.6861 173.371 41.7562C182.92 46.2535 187.564 49.0375 189.533 51.4646C191.316 53.7133 196.221 63.386 198.375 68.9183C200.307 73.8439 200.976 76.6279 201.868 83.5166L202.499 88.4422L201.608 89.0846C200.605 89.7985 192.097 93.332 188.716 94.4028C185.706 95.3665 180.17 96.2231 176.789 96.2231C173.706 96.2231 168.318 95.6877 165.012 95.0453C162.783 94.617 162.783 94.617 162.114 92.8323C161.631 91.476 161.519 90.3696 161.668 88.1566C161.854 85.1584 161.594 84.4446 160.293 84.4446C159.922 84.4446 159.327 84.8729 158.993 85.4083C158.175 86.5861 158.101 91.7973 158.881 93.5462C159.104 94.1173 159.476 95.6164 159.624 96.8299C160.182 101.006 162.56 103.54 166.869 104.575C168.095 104.861 171.476 105.253 174.374 105.468C177.978 105.682 180.059 106.003 180.988 106.431C184.703 108.109 186.821 114.676 184.777 118.174C183.626 120.137 181.842 121.208 179.724 121.208C178.313 121.208 177.347 120.851 174.672 119.352C170.176 116.889 168.727 116.389 167.315 116.961C166.721 117.21 164.492 118.709 162.337 120.316C154.757 126.026 150.745 127.633 144.28 127.633C135.289 127.633 129.344 124.42 127.895 118.852C125.555 109.965 117.79 101.47 108.501 97.6865C105.38 96.4373 103.783 96.009 100.253 95.5093C97.1696 95.081 96.0921 95.4022 96.0921 96.7228C96.0921 97.9364 96.6494 98.1862 100.068 98.6859C109.653 100.042 117.938 105.753 122.471 114.105C127.821 123.992 125.852 136.449 117.455 145.979C114.52 149.298 111.102 151.582 105.566 153.938L100.773 156.008L108.167 156.222C115.821 156.472 118.384 156.865 121.282 158.293C122.062 158.685 122.917 159.256 123.177 159.542C123.623 160.077 121.096 160.113 95.572 160.113C80.1162 160.113 67.484 160.006 67.484 159.827C67.484 159.363 70.382 157.971 71.3851 157.971C73.057 157.971 74.8775 157.043 75.1376 156.044C75.472 154.652 74.5803 153.617 70.9021 151.261C66.741 148.548 62.8027 145.015 58.4557 140.018C54.0345 134.95 52.2511 132.38 49.9848 127.847C44.7833 117.317 43.5572 103.29 46.901 92.2613C48.9445 85.5511 55.4835 76.6279 63.3971 69.7392C76.7352 58.1391 86.3208 56.7828 114.855 62.458C122.36 63.957 125.666 64.0998 129.382 62.9933C134.36 61.5299 137.518 59.6382 137.89 57.925C138.558 55.0696 141.754 50.4295 146.509 45.5397L149.073 42.8627L148.924 40.3642C148.739 36.9734 149.63 33.1186 151.414 29.6565C153.011 26.5869 156.206 22.4466 156.615 22.9463C156.764 23.089 157.098 24.017 157.321 25.0164ZM166.684 98.5075C171.291 99.2213 177.198 99.5069 180.616 99.1499C183.365 98.8287 183.737 98.9001 185.52 99.6853C191.465 102.327 195.477 109.251 192.728 112.071C192.208 112.606 191.428 112.999 190.833 112.999C189.756 112.999 188.233 111.856 188.233 111C188.233 110.108 186.375 106.824 185.112 105.575C182.845 103.219 181.173 102.719 174.189 102.291C168.021 101.898 166.386 101.541 164.826 100.292C163.674 99.3284 162.708 98.0078 163.228 98.0078C163.377 98.0078 164.937 98.2576 166.684 98.5075ZM134.992 129.453C136.292 129.846 138.113 130.31 139.116 130.417C140.825 130.666 140.862 130.702 140.973 131.987C141.159 134.129 140.007 139.661 138.781 142.481C137.407 145.657 134.732 149.369 132.205 151.618L130.31 153.331L131.314 153.545C139.227 155.187 143.686 156.793 145.135 158.578C145.543 159.078 145.878 159.649 145.878 159.792C145.878 159.97 141.717 160.113 136.589 160.113H127.338L126.781 159.113C125.369 156.508 121.765 154.545 116.824 153.653L114.483 153.224L118.198 149.619C122.62 145.336 124.96 141.767 126.818 136.52C127.561 134.45 128.304 131.487 128.527 129.596L128.936 126.276L130.793 127.49C131.834 128.168 133.729 129.025 134.992 129.453Z" fill="#FFBC59"/>
<path d="M153.828 28.9426C153.457 29.8349 154.014 32.3691 154.98 34.3679C156.058 36.6879 158.956 39.4719 160.219 39.4719C161.631 39.4719 161.296 38.5082 159.29 36.7593C157.172 34.9033 156.058 32.9045 155.686 30.2632C155.5 28.7642 155.315 28.4072 154.72 28.4072C154.349 28.4072 153.94 28.6571 153.828 28.9426Z" fill="#FFBC59"/>
<path d="M31.104 185.616C31.552 189.2 31.104 192.336 29.824 195.152C29.312 196.176 28.736 197.136 28.096 197.968C28.224 197.776 28.288 197.52 28.288 197.2C28.288 196.944 28.288 196.688 28.224 196.432C28.16 196.176 28.16 195.984 28.16 195.792C28.16 195.6 28.224 195.472 28.288 195.472H28.224C28.224 195.216 28.224 195.024 28.16 194.832C28.16 194.576 28.224 194.384 28.416 194.128C28.16 194.064 28.096 193.936 28.16 193.808C28.16 193.616 28.16 193.552 28.096 193.488V197.968C27.008 199.44 25.728 200.528 24.256 201.36H24.192C22.08 202.512 19.712 203.408 17.344 204.048C16.384 204.368 15.424 204.56 14.336 204.752C14.144 204.816 13.952 204.816 13.76 204.88C13.568 204.88 13.44 204.944 13.248 204.944H13.184C13.184 204.816 13.12 204.816 13.056 204.816C12.864 204.816 12.736 204.88 12.736 205.008C12.736 205.072 12.736 205.072 12.8 205.072L10.816 205.328L10.432 216.72C10.432 217.616 9.984 218 9.152 218H1.28C0.512 218 0 217.424 0 216.656L0.256 211.856L0.384 211.984C0.64 211.92 0.768 211.792 1.024 211.6L0.832 211.472H0.512L0.256 211.664L0.384 208.272H0.576C0.576 208.208 0.512 208.144 0.448 208.144L0.384 208.08L1.792 177.808C1.856 177.168 2.176 176.784 2.816 176.656C13.056 174.544 14.592 174.224 16.128 174.032C16.704 173.968 17.28 173.968 17.856 173.84L19.584 173.776H19.648C26.56 174.096 30.336 179.024 31.104 185.616ZM3.904 180.432V180.624H4.032V180.432H3.904ZM11.328 195.088C11.904 195.024 13.696 194.768 14.4 194.576C16 194.064 17.792 193.36 19.136 192.208C19.968 191.504 20.48 190.608 20.736 189.52C21.12 187.024 19.968 183.248 17.024 183.824L11.968 184.848L11.328 195.088ZM24.704 184.272V184.144H24.448V184.272H24.704ZM20.992 184.656C20.928 184.72 20.928 184.848 20.992 184.848C21.12 185.04 21.312 184.976 21.312 184.848C21.312 184.848 21.376 184.784 21.44 184.784L20.992 184.656ZM3.136 184.976V185.296H3.264V184.976H3.136ZM22.72 185.104V185.296H22.912V185.104H22.72ZM23.296 187.408C23.296 187.28 23.168 187.024 22.784 186.832V187.6C22.912 187.6 23.104 187.536 23.296 187.408ZM23.424 188.688C23.552 188.56 23.68 188.432 23.68 188.368C23.68 188.304 23.616 188.176 23.552 188.048C23.424 188.176 23.296 188.24 23.296 188.24C23.296 188.24 23.232 188.24 23.232 188.304H23.168C23.04 188.368 22.912 188.432 22.784 188.56L23.424 188.688ZM24.192 189.008L24.448 189.2C24.32 188.944 24.256 188.752 24.192 188.752L24.064 188.688L23.936 188.752C23.936 188.88 24 189.008 24.192 189.008ZM21.696 189.84V190.16H22.144C22.144 190.096 22.144 189.968 22.08 189.904C22.016 189.904 22.016 189.84 21.952 189.84H21.696ZM21.568 190.864L22.016 190.928C22.144 190.8 22.272 190.672 22.272 190.48C22.144 190.48 22.016 190.48 21.952 190.416L21.696 190.608C21.568 190.736 21.504 190.8 21.568 190.864ZM22.784 190.8C23.104 190.8 23.296 190.672 23.296 190.48H22.784V190.8ZM28.288 191.632C28.352 191.568 28.352 191.504 28.352 191.44C28.352 191.312 28.288 191.12 28.096 190.864C28.032 190.928 28.032 191.056 28.096 191.12C28.096 191.248 28.096 191.312 28.032 191.376H27.584C27.648 191.504 27.584 191.568 27.456 191.568C27.52 191.632 27.648 191.632 27.84 191.696C27.84 191.696 27.968 191.76 28.16 191.76C28.16 191.76 28.16 191.696 28.288 191.632ZM22.4 191.376C22.72 191.504 23.04 191.568 23.296 191.568C23.04 191.376 22.912 191.312 22.912 191.248C22.72 191.248 22.592 191.248 22.528 191.312L22.4 191.376ZM22.912 192.016L23.04 191.888L22.784 191.632L22.528 191.76L22.912 192.016ZM28.224 193.36V191.888H28.032V193.36H28.224ZM20.864 193.168L21.568 193.68C21.376 193.424 21.12 193.232 20.864 193.168ZM22.72 196.24V196.112H22.08V196.24H22.72ZM20.544 196.624L20.416 197.008L20.992 196.944C20.992 196.752 20.736 196.624 20.544 196.624ZM19.776 196.816H19.392V196.944H19.776V196.816ZM4.928 197.904H5.248C5.184 197.776 5.056 197.648 4.928 197.584C4.8 197.52 4.736 197.392 4.736 197.328C4.672 197.392 4.48 197.52 4.352 197.52C4.352 197.584 4.288 197.584 4.224 197.584C4.544 197.648 4.8 197.776 4.928 197.904ZM20.032 197.84V197.52L19.52 197.392C19.456 197.456 19.392 197.456 19.392 197.52H19.328C19.2 197.584 19.2 197.648 19.2 197.712C19.2 197.84 19.2 197.904 19.264 197.904H19.328C19.392 197.968 19.52 198.032 19.648 198.032C19.84 198.032 19.968 197.968 20.032 197.84ZM3.776 197.52V197.648C3.776 197.712 3.84 197.776 3.904 197.904L4.032 197.712C4.096 197.648 4.096 197.584 4.096 197.52H3.776ZM13.12 197.968H13.312V197.648H13.12V197.968ZM3.968 198.608C4.096 198.672 4.16 198.672 4.224 198.672C4.352 198.672 4.48 198.672 4.672 198.608C4.864 198.544 4.992 198.48 5.12 198.48C5.056 198.416 4.928 198.352 4.8 198.224C4.672 198.16 4.608 198.096 4.48 198.096C4.352 198.096 4.224 198.16 4.096 198.224C3.968 198.352 3.84 198.416 3.776 198.48C3.968 198.544 4.032 198.608 3.968 198.608ZM21.056 198.544L21.184 198.288L20.928 198.16L20.8 198.48L21.056 198.544ZM16.768 199.12C16.576 199.12 16.384 199.312 16.384 199.44C16.512 199.44 16.64 199.504 16.832 199.504V199.824H17.216C17.28 199.824 17.408 199.76 17.408 199.76C17.28 199.632 16.96 199.504 16.832 199.504C16.832 199.44 16.896 199.376 16.896 199.312C16.896 199.248 16.832 199.184 16.768 199.12ZM18.624 199.504H19.136C19.136 199.44 19.136 199.44 19.072 199.44V199.312C19.008 199.312 19.008 199.248 19.008 199.248L18.624 199.504ZM3.904 199.824H4.032L3.84 199.312H3.712L3.904 199.824ZM17.984 199.952C18.112 199.824 18.112 199.568 17.984 199.44H17.536C17.664 199.696 17.792 199.888 17.984 199.952ZM3.84 200.208L4.032 199.952H3.904L3.712 200.144L3.84 200.208ZM13.888 200.4L14.4 200.336L13.888 199.952V200.4ZM5.888 200.336V200.016H5.504V200.336H5.888ZM17.408 200.272C17.152 200.4 16.96 200.592 16.832 200.784H17.344L18.304 200.976V200.848L18.24 200.784C18.176 200.72 18.176 200.72 18.176 200.656H18.112L18.048 200.72L17.792 200.784H17.536L17.408 200.272ZM18.752 201.296C18.752 201.104 18.624 200.976 18.432 200.848C18.304 201.04 18.304 201.232 18.368 201.36H18.624C18.688 201.36 18.688 201.296 18.752 201.296ZM17.152 202C17.28 202 17.408 202.064 17.472 202.128C17.664 201.872 17.792 201.744 17.792 201.616C17.792 201.552 17.792 201.488 17.728 201.36C17.664 201.36 17.6 201.232 17.536 201.168C17.472 201.168 17.472 201.232 17.408 201.232H17.344C17.28 201.232 17.28 201.296 17.28 201.296C17.28 201.296 17.216 201.296 17.152 201.36V202ZM3.008 201.424C2.944 201.488 2.944 201.488 2.944 201.552H3.264C3.264 201.552 3.264 201.488 3.2 201.424C3.072 201.36 3.072 201.296 3.008 201.232V201.424ZM19.648 201.872V201.68L19.136 201.808V202L19.648 201.872ZM13.056 202.704L13.44 202.384L13.056 202.064C12.992 202.128 12.736 202.384 12.736 202.512L13.056 202.704ZM17.984 202.32C17.984 202.448 18.112 202.512 18.304 202.512H18.432C18.496 202.448 18.496 202.384 18.496 202.256V202.064C18.176 202.064 17.984 202.128 17.984 202.32ZM4.544 202.384L4.992 202.256L4.928 202.128L4.544 202.256V202.384ZM18.752 202.96C18.816 202.832 18.816 202.704 18.752 202.64C18.56 202.704 18.432 202.768 18.432 202.96H18.752ZM17.664 203.088H18.176C18.176 203.024 18.112 202.896 17.984 202.832C17.792 202.832 17.664 202.96 17.664 203.088ZM3.584 203.6V203.216H3.456V203.6H3.584ZM12.928 204.176V203.92H12.544V204.176H12.928ZM3.52 216.784V203.984C3.456 204.304 3.328 204.56 3.264 204.816C3.2 205.136 3.072 205.392 3.072 205.584C3.072 205.648 3.072 205.712 3.136 205.776C3.2 205.84 3.264 205.904 3.2 205.968C2.944 206.032 2.944 206.224 3.008 206.352C3.072 206.608 3.072 206.8 3.008 206.864C2.944 206.864 2.944 206.928 2.88 206.992C2.88 206.992 2.816 206.992 2.816 207.056C2.688 207.12 2.688 207.184 2.688 207.248C2.688 207.312 2.688 207.376 2.752 207.44C2.752 207.504 2.88 207.568 2.688 207.696C2.624 207.76 2.624 207.76 2.56 207.76H2.496C2.624 207.952 2.688 208.08 2.624 208.272C2.496 208.592 2.368 209.04 2.496 209.232C2.56 209.424 2.496 209.552 2.432 209.552C2.176 210.192 2.304 210.576 2.368 210.96C2.24 211.024 2.176 211.088 2.112 211.216C1.92 211.408 1.856 211.536 1.856 211.536V211.728C1.856 212.24 1.856 212.624 1.792 212.944C1.664 213.392 1.664 213.776 1.6 214.16C1.6 214.288 1.6 214.352 1.536 214.48C1.472 214.544 1.408 214.672 1.408 214.736C1.408 214.928 1.472 216.208 1.792 216.528C1.984 216.592 2.304 216.656 2.688 216.656C2.88 216.656 3.2 216.72 3.52 216.784ZM0.832 206.032V206.224H1.216V206.032H0.832ZM1.216 207.312C1.024 207.12 0.64 207.12 0.64 207.312L0.832 207.504C0.96 207.504 1.088 207.44 1.216 207.312ZM1.152 208.08C1.216 208.08 1.28 208.016 1.28 207.952C1.088 207.888 0.768 207.888 0.64 207.952L0.96 208.144C1.024 208.08 1.152 208.08 1.152 208.08ZM0.704 208.592H1.152C0.96 208.464 0.832 208.336 0.832 208.208C0.832 208.208 0.768 208.272 0.768 208.4C0.768 208.464 0.768 208.528 0.704 208.592ZM6.976 209.68V208.976L6.848 209.168C6.848 209.36 6.912 209.552 6.976 209.68ZM0.832 210.064V209.872H0.512V210.064H0.832ZM6.912 212.048L6.976 209.872L6.848 210.512C6.784 210.576 6.784 210.704 6.784 210.704C6.784 210.768 6.784 210.832 6.72 210.832C6.848 211.088 6.848 211.152 6.784 211.152C6.72 211.088 6.656 211.152 6.656 211.216C6.656 211.6 6.656 211.6 6.912 212.048ZM0.256 212.688L0.512 212.624L0.448 212.56L0.256 212.624V212.688ZM9.152 217.872H9.28L9.216 217.68H9.088L9.152 217.872Z" fill="#FFBC59"/>
<path d="M63.8225 173.392C64.6545 173.392 65.2305 173.968 65.2305 174.736L65.0385 182.352C64.9745 183.12 64.5905 183.568 63.8225 183.632L46.2225 185.488L45.7745 190.8L58.9585 190.096V196.368H59.2145V190.096C59.9185 190.096 60.5585 190.672 60.5585 191.376V198.032C60.5585 198.736 60.1745 199.184 59.4705 199.312L45.4545 201.168L45.1345 206.48L62.2225 205.968C62.9905 205.968 63.5665 206.544 63.5665 207.248V215.312C63.5665 216.08 63.1825 216.528 62.3505 216.592L35.4065 218C34.6385 218 34.0625 217.488 34.0625 216.656C34.1265 210.384 34.3185 203.792 34.6385 196.944C34.9585 189.84 35.5345 182.8 36.2385 175.76C36.3665 174.992 36.7505 174.608 37.5185 174.608L63.8225 173.392ZM45.5825 174.608V174.8H45.7105V174.608H45.5825ZM49.7425 175.184C49.6145 175.248 49.6785 175.312 49.8705 175.312C49.8065 175.312 49.7425 175.248 49.7425 175.184ZM50.9585 176.272C51.0865 176.144 51.0865 176.08 51.0865 176.016C51.0865 175.888 50.9585 175.76 50.7025 175.76C50.4465 175.76 50.2545 175.824 50.1265 176.016C50.0625 176.144 49.9985 176.208 49.9345 176.272C50.0625 176.208 50.1265 176.08 50.1265 176.016C50.1905 176.016 50.3185 175.952 50.4465 175.952C50.7025 176.016 50.8305 176.144 50.8305 176.272V176.528C50.8305 176.4 50.8945 176.336 50.9585 176.272ZM60.5585 176.016V175.824H60.4305V176.016H60.5585ZM42.3825 176.016V176.208H43.7265V176.016H42.3825ZM46.9905 176.208V176.016H46.0945V176.08H45.9665C45.7745 176.144 45.6465 176.208 45.6465 176.272H46.0945L46.1585 176.208H46.9905ZM44.8785 176.144V176.272H45.0705V176.144H44.8785ZM55.5025 176.528V176.272H54.9905V176.528H55.5025ZM47.8865 176.528C47.8225 176.528 47.7585 176.592 47.7585 176.848C47.7585 176.784 47.8865 176.72 48.0145 176.592C48.1425 176.464 48.0785 176.464 47.8865 176.528ZM52.1105 176.848V176.72H51.8545V176.848H52.1105ZM42.3825 177.872L41.8065 177.808C41.8065 177.872 41.8065 177.936 41.8705 178.064V178.192H42.1265C42.1265 178.128 42.1905 178.064 42.2545 178C42.3185 177.936 42.3825 177.936 42.3825 177.872ZM49.6145 178.704C49.4225 178.64 49.2945 178.576 49.2945 178.448V178.384L49.6145 178.064C49.5505 178.128 49.4225 178.192 49.3585 178.192H49.2305C49.1665 178.192 49.1665 178.256 49.0385 178.256H48.9105C48.7185 178.32 48.5265 178.512 48.3985 178.768L48.5265 178.896H49.2945C49.4225 178.896 49.4225 178.832 49.4225 178.832H49.4865L49.6145 178.704ZM51.7905 178.768V178.896H51.8545L51.9185 178.96L51.9825 178.768H51.7905ZM47.7585 179.344H48.1425L48.0145 178.96C47.6945 179.088 47.5025 179.216 47.5025 179.344C47.6305 179.408 47.6945 179.408 47.7585 179.344ZM50.4465 179.856H50.9585C50.9585 179.792 50.8945 179.664 50.6385 179.472L50.4465 179.856ZM52.8145 179.984L53.5825 179.92C53.5825 179.856 53.5185 179.792 53.4545 179.728L53.3265 179.6C53.0065 179.728 52.8145 179.856 52.8145 179.984ZM49.1025 180.176L49.2945 179.984C49.0385 179.856 48.8465 179.792 48.7185 179.792C48.5265 179.792 48.3985 179.856 48.3985 180.112L48.7185 180.304L48.9105 180.368H48.9745C49.0385 180.368 49.1025 180.24 49.1025 180.176ZM51.7905 180.496C51.8545 180.56 51.9825 180.56 52.1105 180.496C52.1105 180.304 52.0465 180.112 51.8545 180.048C51.7265 180.112 51.6625 180.112 51.5985 180.112C51.5345 180.112 51.4705 180.112 51.3425 180.176L51.4705 180.496H51.7905ZM38.2865 180.432L38.3505 180.304H38.2865L38.1585 180.368L38.2865 180.432ZM50.2545 180.88C50.3825 180.88 50.4465 180.816 50.4465 180.624C50.4465 180.496 50.3825 180.368 50.1265 180.368C50.0625 180.368 50.0625 180.432 49.9985 180.432H49.9345L49.8705 180.496C49.8065 180.56 49.7425 180.624 49.7425 180.752C49.7425 180.816 49.8065 180.88 49.8065 180.88H50.2545ZM59.7905 180.752V180.432H59.6625V180.752H59.7905ZM50.1265 183.76V183.568H49.9985V183.76H50.1265ZM44.9425 183.76C44.8785 183.76 44.8145 183.824 44.8145 183.952H44.9425L45.0065 183.888C44.9425 183.888 44.9425 183.824 44.9425 183.76ZM44.5585 186.896C44.4945 186.96 44.4305 186.96 44.4305 187.024L44.7505 187.088C44.8145 187.024 44.8145 186.96 44.7505 186.768C44.6865 186.768 44.6225 186.832 44.5585 186.896ZM44.6225 188.112L44.8785 188.176L44.9425 188.112L44.6225 188.048V188.112ZM45.2625 190.416V190.736H45.5825V190.416H45.2625ZM45.4545 191.568C45.3905 191.568 45.2625 191.568 45.1985 191.504C45.1345 191.504 45.0705 191.44 44.9425 191.44L44.8785 191.504C44.7505 191.568 44.6865 191.632 44.6865 191.76C44.6865 191.952 44.8785 192.08 45.1985 192.08C45.2625 192.08 45.3905 192.08 45.4545 192.016V191.568ZM50.3825 191.888L50.3185 191.952H50.3825V191.888ZM59.4705 192.144V192.784C59.5985 192.784 59.6625 192.784 59.7905 192.848C59.9185 192.848 60.0465 192.912 60.1105 192.912L60.3665 192.592V192.08C60.3025 192.016 59.9825 191.888 59.8545 191.888L59.4705 192.144ZM50.7665 191.952H50.6385V192.016L50.7665 191.952ZM49.3585 192.464L48.9745 192.656L49.2945 192.912C49.4865 192.848 49.5505 192.592 49.3585 192.464ZM50.8945 192.848L51.0225 192.464H50.7665L50.6385 192.72L50.8945 192.848ZM46.8625 192.784V193.168C47.1185 193.104 47.1185 192.976 46.8625 192.784ZM46.0945 193.488C46.0945 193.488 46.0305 193.488 45.9025 193.552L46.1585 193.808C46.2225 193.808 46.3505 193.872 46.4785 193.872L46.5425 193.808H46.6705V193.488C46.4785 193.488 46.3505 193.424 46.2865 193.36L46.1585 193.424C46.1585 193.424 46.0945 193.424 46.0945 193.488ZM49.1025 193.424C49.0385 193.488 48.9745 193.488 48.9745 193.488C48.9745 193.552 49.0385 193.616 49.1025 193.744H49.5505L49.3585 193.616C49.2305 193.552 49.2305 193.488 49.1025 193.424ZM44.7505 193.68C44.6865 193.616 44.3025 193.488 44.1745 193.488C44.1745 193.616 44.2385 193.68 44.3665 193.744C44.4945 193.872 44.6865 193.872 44.9425 193.872H45.1345V193.68H44.7505ZM48.9105 194.256C48.9105 194.384 48.8465 194.448 48.8465 194.448H49.3585C49.4865 194.384 49.4865 194.32 49.4865 194.256V194H48.9745C48.9745 194.128 48.9745 194.128 48.9105 194.256ZM44.3025 194.832C44.3025 194.96 44.3665 195.024 44.4305 194.896C44.4305 194.896 44.4945 194.896 44.6225 194.832L44.4945 194.768H44.4305C44.3665 194.768 44.3025 194.768 44.3025 194.832ZM43.5345 196.048C43.7265 196.048 43.8545 196.048 43.9825 195.92C43.8545 195.92 43.7905 195.856 43.7265 195.792L43.6625 195.728H43.3425C43.2145 195.856 43.1505 196.048 43.1505 196.112C43.3425 196.048 43.4705 196.048 43.5345 196.048ZM44.4305 196.368C44.1105 196.368 43.5345 196.24 43.5345 196.24L43.3425 196.368C43.4065 196.496 43.4705 196.56 43.5345 196.624C43.5985 196.432 43.7265 196.368 43.8545 196.432C44.0465 196.432 44.2385 196.432 44.4305 196.368ZM41.6785 196.368C41.5505 196.432 41.4865 196.56 41.4865 196.624L41.6785 196.752C41.7425 196.752 41.8065 196.688 41.9345 196.688C41.9345 196.56 41.9985 196.56 42.1265 196.496C41.9985 196.496 41.9345 196.432 41.9345 196.432C41.8705 196.432 41.8065 196.368 41.6785 196.368ZM59.0865 196.496V198.096C59.2145 197.904 59.2785 197.84 59.3425 197.776C59.4065 197.648 59.4705 197.584 59.4705 197.52L59.3425 197.072C59.2785 197.008 59.2145 196.816 59.0865 196.496ZM44.4305 197.712C44.3025 197.456 44.4945 197.2 44.7505 196.88C44.6225 196.88 44.6225 196.88 44.4945 196.816H44.2385C44.1745 196.816 44.0465 196.816 43.8545 196.944C43.5985 197.008 43.4705 197.072 43.3425 197.136C43.5985 197.264 43.8545 197.328 43.9185 197.392C43.8545 197.584 43.7905 197.712 43.8545 197.84L44.4305 197.712ZM42.6385 197.392C42.7665 197.52 42.8305 197.52 42.9585 197.392L42.8945 197.328C42.8305 197.328 42.8305 197.328 42.7665 197.264C42.7025 197.328 42.7025 197.328 42.6385 197.328V197.392ZM45.3905 197.328H44.6865C44.7505 197.648 44.8785 197.648 45.1345 197.648C45.2625 197.648 45.3905 197.584 45.5825 197.52L45.3905 197.328ZM42.7665 197.52C42.5105 197.648 42.4465 197.776 42.5745 197.84C42.5745 197.968 42.6385 198.096 42.6385 198.096C42.8305 198.096 42.9585 198.032 43.0225 197.968C43.0225 197.84 42.9585 197.648 42.7665 197.52ZM45.6465 198.672V198.16H45.3265C45.1985 198.16 45.1345 198.224 45.1345 198.288C45.1345 198.352 45.0705 198.416 45.0065 198.416C45.0065 198.224 44.9425 198.096 44.8145 198.032H44.4305C44.4305 198.096 44.4945 198.16 44.5585 198.16L44.7505 198.352L44.3025 198.544C44.1745 198.608 44.0465 198.736 43.9825 198.8C44.1105 198.864 44.2385 198.864 44.3025 198.928H44.6865C44.8145 198.928 44.8145 198.992 45.6465 198.672ZM43.3425 198.416C43.0225 198.416 42.8945 198.864 42.8945 199.056V199.376C43.1505 199.568 43.3425 199.632 43.4705 199.632H43.6625L43.8545 199.504V198.672C43.7265 198.608 43.6625 198.544 43.5985 198.48C43.5345 198.48 43.4705 198.416 43.3425 198.416ZM42.4465 198.992L42.3185 198.736C42.2545 198.736 41.9985 198.928 41.9985 198.992C42.1905 199.056 42.3185 199.056 42.4465 198.992ZM56.5265 198.928V199.12H57.2945V198.928H56.5265ZM45.3265 199.312C45.3905 199.312 45.4545 199.248 45.4545 199.12H45.0705L44.9425 199.312H45.3265ZM41.8065 199.376C41.5505 199.44 41.4865 199.568 41.4865 199.632H41.8065C41.8705 199.568 41.8705 199.504 41.8065 199.376ZM44.7505 199.76C44.8785 199.824 45.0065 199.824 45.1345 199.824C45.1345 199.696 45.0065 199.568 44.8785 199.504L44.7505 199.76ZM42.8945 199.76C42.7025 199.952 42.6385 200.08 42.6385 200.144L43.2145 200.208L43.3425 199.952C43.2785 199.888 43.2145 199.824 43.2145 199.76H42.8945ZM43.5985 200.4L43.9825 200.272L43.9185 199.888C43.7265 199.888 43.5985 199.952 43.5985 200.144V200.4ZM44.7505 200.464L45.1985 200.4C45.1985 200.336 45.1345 200.272 45.0705 200.272L44.9425 200.144C44.8145 200.208 44.6225 200.208 44.3665 200.208C44.2385 200.208 44.1105 200.272 44.1105 200.272C44.1105 200.272 44.0465 200.336 43.9825 200.336L44.3025 200.592C44.4945 200.528 44.6225 200.464 44.7505 200.464ZM43.8545 201.04H44.1745L44.3665 200.912L43.8545 200.784V201.04ZM43.7265 201.04C43.5985 200.976 43.4705 200.912 43.2145 200.912L43.3425 201.168C43.4705 201.168 43.5985 201.168 43.7265 201.04ZM42.9585 201.424C42.9585 201.488 42.8945 201.552 42.8305 201.616L43.5345 201.68C43.5985 201.68 43.6625 201.552 43.6625 201.488L42.9585 201.424ZM42.3185 201.872C42.3825 202 42.5105 202.064 42.7025 202.064C42.5745 201.808 42.4465 201.616 42.4465 201.552L41.9985 201.616L42.3185 201.872ZM43.0865 202.448H43.4065C43.3425 202.32 43.2785 202.192 43.3425 202.128C43.4065 202 43.4065 201.936 43.3425 201.872L43.1505 202.064C43.0865 202.064 43.0865 202.128 43.0865 202.192V202.448ZM44.6865 202.32C44.8785 202.32 45.0065 202.192 45.0065 202.064H44.6865V202.32ZM41.2945 202.128C41.1665 202.192 41.1025 202.256 41.1025 202.32L41.4865 202.448C41.4865 202.32 41.4865 202.32 41.5505 202.256L41.6145 202.192C41.4225 202.128 41.2945 202.128 41.2945 202.128ZM43.2785 202.576H43.0865V202.832H43.2785V202.576ZM43.5985 202.704H43.4065C43.4065 202.768 43.4065 202.832 43.4705 202.832C43.4705 202.896 43.4705 202.896 43.5345 202.96L43.9825 202.832C43.9185 202.832 43.9185 202.768 43.9185 202.704V202.64C43.7265 202.64 43.6625 202.704 43.5985 202.704ZM44.4305 203.536V203.28H44.0465V203.536H44.4305ZM40.7825 203.664C40.7185 203.792 40.7185 203.92 40.8465 204.048C41.0385 203.984 41.1665 203.856 41.1665 203.664H40.7825ZM42.0625 204.112H42.1265C42.1905 204.176 42.1905 204.176 42.2545 204.176C42.3185 204.176 42.3825 204.176 42.4465 204.112L42.3825 203.792H42.2545C42.2545 203.856 42.1905 203.856 42.1905 203.856H42.0625V204.112ZM40.7825 205.136C40.9745 205.136 41.0385 205.136 41.1025 205.072C41.1025 205.008 41.1665 205.008 41.2305 204.88L41.0385 204.752C40.9745 204.752 40.8465 204.816 40.7185 204.88L40.7825 205.136ZM42.5745 205.136L42.6385 205.008H42.3185V205.072L42.5745 205.136ZM41.6145 205.776C41.6785 205.84 41.8065 205.904 41.9345 205.904V205.712C41.9985 205.712 41.9345 205.648 41.9345 205.52C41.7425 205.52 41.6145 205.776 41.6145 205.776ZM47.2465 208.08V208.208H47.7585V208.08H47.2465ZM49.8065 208.272C49.6145 208.4 49.5505 208.464 49.4865 208.464C49.6145 208.528 49.6785 208.656 49.6785 208.72H49.9985C50.0625 208.656 50.1265 208.592 50.1265 208.528C50.1265 208.464 50.1905 208.4 50.1905 208.4L50.0625 208.08C50.0625 208.144 49.9345 208.272 49.8065 208.272ZM53.5825 208.336L53.4545 208.528H53.5825L53.6465 208.4L53.5825 208.336ZM48.0145 208.528V208.4H47.6305V208.528H48.0145ZM51.0225 208.656L50.9585 208.912L51.2145 208.848C51.2145 208.784 51.2145 208.784 51.1505 208.784C51.0865 208.784 51.0865 208.72 51.0225 208.656ZM47.2465 208.976V209.04L47.3745 209.168C47.5665 209.104 47.6305 209.04 47.5025 208.912C47.4385 208.912 47.3745 208.912 47.3745 208.976H47.2465ZM49.4865 209.168C49.4225 209.104 49.2945 209.04 49.1665 209.04L49.2945 209.488C49.3585 209.488 49.3585 209.424 49.3585 209.424C49.4225 209.424 49.4225 209.36 49.4225 209.296C49.4865 209.296 49.4865 209.232 49.4865 209.168ZM50.7025 209.296C50.5105 209.36 50.3825 209.488 50.3825 209.616H50.7025C50.7025 209.552 50.7025 209.488 50.7665 209.424C50.7665 209.424 50.7665 209.36 50.7025 209.296ZM41.9985 210.256H41.6145V210.64C41.6145 210.576 41.6785 210.576 41.7425 210.512L41.9985 210.256ZM42.8945 210.256C42.8945 210.384 43.0225 210.448 43.2145 210.448V210.32C43.2145 210.256 43.2145 210.256 43.2785 210.256H42.8945ZM46.2865 210.448H46.2225L46.3505 210.704H46.4785L46.2865 210.448ZM52.8785 210.64H52.3665C52.3665 210.832 52.4945 210.96 52.6865 210.96L52.8145 210.768C52.8785 210.704 52.8785 210.64 52.8785 210.64ZM50.1265 210.96V210.768H49.9985L49.9345 210.96H50.1265ZM48.0785 211.152C48.1425 211.152 48.1425 211.088 48.1425 211.088L48.0145 210.96H47.8865L48.0145 211.216C48.0145 211.216 48.0145 211.152 48.0785 211.152ZM42.5105 212.176V211.856H41.9985V212.176H42.5105ZM36.6225 213.264C36.6225 213.072 36.6865 212.944 36.8145 212.88H35.9825V213.264H36.6225ZM60.0465 212.88L59.9185 213.136L60.6865 213.264V213.072L60.0465 212.88ZM40.7825 213.264V213.008H40.0785V213.264H40.7825ZM45.5185 213.264H45.0065V213.584H45.5185V213.264ZM48.5265 213.52C48.4625 213.648 48.4625 213.84 48.4625 214.032C48.4625 214.224 48.5265 214.352 48.5265 214.352H49.4225C49.4225 214.288 49.4865 214.224 49.5505 214.096C49.6145 214.032 49.6145 213.904 49.6145 213.84L49.2945 213.52H48.5265ZM38.6705 213.584V213.84H39.3745V213.584H38.6705ZM41.4865 215.184C41.9345 214.928 42.0625 213.968 41.7425 213.648C41.6145 213.648 41.3585 213.776 41.2305 213.84C41.4225 214.288 41.4865 214.8 41.4865 215.184ZM35.0865 214.288C35.2145 214.608 35.7265 214.416 35.8545 214.288H35.0865ZM37.7745 214.8V214.544H37.6465V214.288H37.0705V214.544H37.6465V214.8H37.7745ZM44.1105 214.928C44.2385 214.8 44.3665 214.736 44.4305 214.672C44.1745 214.672 43.9185 214.672 43.7265 214.736C43.5985 214.8 43.4705 214.8 43.3425 214.864C43.2145 214.864 43.1505 214.928 43.0225 214.928C43.1505 214.992 43.4705 215.312 43.4705 215.44C43.7905 215.248 44.0465 214.992 44.1105 214.928ZM40.0785 215.248C40.2065 215.056 40.2065 214.928 40.2065 214.864H39.1185V215.44C39.5025 215.44 39.8225 215.504 40.0145 215.568C40.0145 215.568 40.0785 215.44 40.0785 215.248ZM51.7905 215.056V215.184H52.2385V215.056H51.7905ZM59.9185 216.016C59.9185 216.144 59.8545 216.208 59.7905 216.208C59.9185 216.208 60.0465 216.144 60.1745 216.016H59.9185ZM39.3105 216.4V216.144H38.7985V216.4H39.3105Z" fill="#FFBC59"/>
<path d="M103.157 216.464C103.285 217.296 102.709 218 101.877 218H92.213C91.445 218 90.997 217.616 90.933 216.848L90.293 209.04L80.629 210.96L79.221 216.848C79.029 217.488 78.581 217.808 77.941 217.808L68.469 217.616C67.637 217.616 67.125 216.848 67.253 215.952C68.597 210.96 70.133 205.84 71.669 200.848C72.821 197.136 74.165 193.488 75.573 189.904C77.493 185.04 79.541 180.176 81.589 175.376C81.781 174.992 82.101 174.736 82.549 174.608C83.957 174.352 85.365 174.032 86.837 173.84C87.925 173.648 89.205 173.648 90.549 173.776C93.045 173.968 94.517 176.016 95.477 178.192C95.989 179.6 96.437 181.2 96.821 182.608C96.949 183.12 97.781 186.576 98.357 189.648L103.157 216.464ZM82.869 176.144V176.528H83.125V176.144H82.869ZM90.677 177.68V178.192H90.869V177.68H90.677ZM90.165 178.704V179.088L90.357 179.28C90.421 179.152 90.485 179.024 90.485 178.768C90.293 178.768 90.165 178.768 90.165 178.704ZM83.253 179.088H83.061C82.997 179.088 82.933 179.024 82.933 179.024V179.856C82.933 179.664 83.061 179.408 83.253 179.088ZM91.381 179.216C91.445 179.152 91.509 179.088 91.573 179.088L90.869 179.024V179.28C90.933 179.344 90.933 179.344 90.933 179.472H91.189C91.189 179.408 91.253 179.344 91.381 179.216ZM90.741 179.088V179.28L90.869 179.472V179.344L90.741 179.088ZM92.085 179.792C91.893 179.792 91.765 179.92 91.637 180.24L91.765 180.368H92.597C92.661 180.368 92.725 180.304 92.853 180.24C92.661 180.112 92.533 180.048 92.533 179.856L92.661 179.664C92.469 179.728 92.277 179.792 92.085 179.792ZM91.893 181.52C91.765 181.52 91.637 181.584 91.637 181.776C91.701 181.84 91.829 181.904 91.957 181.904C92.085 181.904 92.149 181.968 92.277 182.032C92.341 181.968 92.405 181.904 92.405 181.84C92.405 181.776 92.405 181.776 92.469 181.712C92.277 181.584 92.085 181.52 91.893 181.52ZM86.709 181.904L86.581 182.032L86.709 182.096L86.773 181.904H86.709ZM87.605 182.416H87.349L87.413 182.736H87.733C87.797 182.8 87.861 182.736 87.989 182.736C87.989 182.544 87.925 182.416 87.861 182.352C87.669 182.352 87.605 182.416 87.605 182.416ZM92.981 183.568C92.917 183.696 92.789 183.696 92.661 183.76C92.597 183.76 92.533 183.824 92.533 183.952C92.533 184.016 92.597 184.08 92.661 184.144H93.045C93.173 184.08 93.301 183.952 93.301 183.888C93.301 183.696 93.173 183.568 92.981 183.568ZM78.901 186.064C78.965 185.936 78.517 186.256 78.517 186.384C78.517 186.512 78.773 187.088 78.901 187.088C78.965 186.768 78.965 186.384 78.901 186.064ZM83.317 186.896V187.024C83.317 187.024 83.317 186.96 83.445 186.96C83.573 187.024 83.637 187.024 83.701 186.896L83.381 186.768C83.317 186.768 83.317 186.832 83.317 186.896ZM79.093 187.92L78.837 187.984V188.688H79.093V187.92ZM86.453 188.24C86.133 188.176 85.813 188.304 85.557 188.688C85.749 189.264 85.941 189.328 86.453 189.072L86.645 188.56C86.645 188.496 86.581 188.432 86.581 188.432C86.581 188.368 86.517 188.304 86.453 188.24ZM93.685 188.304H93.237V188.432H93.685V188.304ZM93.941 189.456C93.941 189.264 93.813 189.136 93.557 189.136C93.493 189.264 93.493 189.328 93.493 189.328L93.557 189.456H93.941ZM83.957 199.696L88.757 199.568L88.373 196.496C88.245 195.472 88.117 194.448 87.925 193.424C87.669 192.08 87.413 190.736 87.093 189.392L83.957 199.696ZM85.941 189.84L85.813 189.776L85.621 190.288L85.749 190.352L85.941 189.84ZM91.829 190.096L91.637 190.16L91.829 190.288L91.957 190.224L91.829 190.096ZM83.829 194.768V194C84.149 193.808 84.469 193.296 84.533 193.104C84.597 192.912 84.661 192.72 84.661 192.592C84.725 192.4 84.917 192.016 85.301 191.248L84.981 191.12C84.853 191.184 84.789 191.248 84.661 191.376C84.533 191.504 84.405 191.632 84.341 191.632C84.213 192.08 84.149 192.464 84.021 192.784C83.893 193.04 83.829 193.232 83.765 193.232C83.765 193.296 83.701 193.424 83.573 193.488C83.509 193.552 83.445 193.68 83.381 193.936C83.445 193.808 83.189 194.512 82.933 195.344C82.741 195.92 82.677 196.24 82.677 196.24C82.549 196.624 82.485 196.816 82.101 197.264C81.653 197.776 81.653 197.968 81.525 198.416C81.461 198.544 81.397 198.736 81.397 198.992C81.333 199.312 81.205 199.568 81.013 199.888C80.885 200.144 80.757 200.4 80.693 200.656C80.693 200.912 80.757 201.104 80.821 201.104C80.949 201.168 81.013 201.168 81.141 201.104C81.141 201.04 81.269 200.976 81.333 200.912C81.525 200.528 81.653 200.144 81.717 199.824C81.781 199.44 81.973 199.056 82.165 198.8C82.165 198.672 82.293 198.48 82.549 198.224L82.805 197.52C82.805 197.648 83.445 195.664 83.829 194.768ZM92.277 192.656H92.661V192.528C92.661 192.528 92.661 192.464 92.725 192.464L92.277 192.4V192.656ZM93.557 193.104L93.941 193.232V193.104L93.557 192.976V193.104ZM90.869 193.424C90.933 193.616 91.189 193.552 91.189 193.424H90.869ZM94.517 195.408L94.197 195.664C94.453 195.664 94.517 195.6 94.517 195.408ZM89.717 195.6V195.856H90.101C90.101 195.792 90.037 195.728 89.973 195.664C89.845 195.664 89.717 195.6 89.717 195.6ZM92.405 196.496C92.341 196.112 92.085 195.92 91.637 195.856C91.509 195.92 91.445 196.048 91.445 196.24H91.829C91.637 196.368 91.573 196.496 91.765 196.688H92.341V196.496H92.405ZM94.069 195.984V196.112C94.261 196.112 94.453 196.112 94.453 195.984C94.389 195.984 94.325 195.856 94.325 195.856H94.197C94.133 195.856 94.069 195.92 94.069 195.984ZM93.173 195.984C93.173 196.048 93.173 196.048 93.237 196.112C93.301 196.176 93.301 196.24 93.429 196.24L93.557 196.048C93.557 195.984 93.429 195.984 93.173 195.984ZM94.069 196.496V196.816C94.389 197.008 94.709 196.944 95.093 196.752C94.965 196.624 94.773 196.496 94.581 196.496H94.069ZM92.341 197.584C92.469 197.584 92.597 197.584 92.661 197.648H93.045V197.328C92.981 197.328 92.917 197.264 92.853 197.264C92.789 197.2 92.725 197.2 92.661 197.2C92.469 197.264 92.341 197.392 92.341 197.584ZM90.293 197.52V197.392H89.781V197.52H90.293ZM95.413 197.648C95.349 197.456 95.285 197.392 95.221 197.392H94.581C93.813 197.904 93.877 197.776 93.877 197.968C93.877 198.16 94.069 198.416 94.453 199.056H95.349C95.413 199.056 95.477 198.992 95.605 198.992C95.477 198.8 95.349 198.672 95.157 198.672C94.965 198.672 94.773 198.544 94.517 198.288C94.773 198.224 94.965 198.16 95.029 198.032C95.093 197.904 95.221 197.776 95.413 197.648ZM80.053 198.032V197.584H79.797C79.733 197.776 79.669 198.032 79.669 198.16C79.669 198.352 79.733 198.48 79.861 198.544C79.989 198.352 80.053 198.16 80.053 198.032ZM92.533 198.16C92.533 198.032 92.469 197.968 92.469 197.904L92.405 197.776H91.957V198.032L92.277 198.288V198.224C92.341 198.224 92.341 198.224 92.405 198.16H92.533ZM93.237 198.224C93.237 198.224 93.173 198.224 93.173 198.16H93.045L93.173 198.928C93.365 198.672 93.429 198.288 93.429 198.288C93.365 198.288 93.301 198.224 93.237 198.224ZM91.701 198.544C91.509 198.48 91.317 198.544 91.189 198.544L91.381 198.864C91.509 198.8 91.637 198.8 91.765 198.8C91.829 198.8 92.021 198.864 92.213 198.864C92.405 198.864 92.661 198.672 92.661 198.544H91.701ZM91.125 199.504L91.189 199.248H91.061L90.997 199.44L91.125 199.504ZM91.957 200.144C92.021 200.08 92.021 200.08 92.021 199.952C91.957 199.952 91.829 199.888 91.637 199.888L91.509 200.016C91.509 200.08 91.509 200.08 91.445 200.144L91.893 200.272C91.893 200.208 91.893 200.144 91.957 200.144ZM90.933 200.144C91.061 200.144 91.125 200.08 91.061 200.016L90.933 200.144ZM94.453 200.848H94.517C94.517 200.784 94.453 200.72 94.325 200.592C94.325 200.592 94.261 200.656 94.133 200.656C94.069 200.656 94.069 200.656 94.069 200.72C94.133 200.72 94.389 200.848 94.453 200.848ZM93.301 201.744H93.941C93.877 201.68 93.813 201.552 93.813 201.36C93.749 201.232 93.685 201.104 93.685 200.976C93.301 200.72 92.981 200.592 92.661 200.656C92.661 200.72 92.789 200.784 92.853 200.784C93.045 200.848 93.173 201.04 93.301 201.36V201.744ZM90.741 201.36V201.104H90.549V201.36H90.741ZM96.181 201.744V201.872H96.565V201.808L96.181 201.744ZM92.213 201.872H91.957V202.192H92.213V201.872ZM90.357 202.32V202.448H90.549V202.32H90.357ZM88.437 202.768V202.64H88.117V202.768H88.437ZM89.781 203.664C89.845 203.6 89.845 203.472 89.845 203.344C89.717 203.344 89.589 203.408 89.397 203.536H89.653L89.781 203.664ZM91.893 203.792C91.829 203.856 91.765 203.984 91.573 204.112C91.701 204.176 92.021 204.304 92.213 204.304C92.469 204.112 92.661 203.92 92.661 203.792C92.661 203.728 92.597 203.664 92.469 203.536C92.341 203.536 92.277 203.472 92.277 203.408L91.893 203.792ZM93.557 205.456H93.237V205.584H93.557V205.456ZM92.789 205.584H92.405C92.405 205.84 92.533 205.968 92.789 206.096V205.584ZM95.413 205.84L94.901 206.032C94.901 206.16 95.093 206.608 95.477 206.608C95.669 206.608 95.797 206.608 95.861 206.544C95.861 206.608 95.989 206.544 96.245 206.48C96.181 206.352 96.117 206.352 96.053 206.352L95.797 206.16C95.733 206.096 95.733 205.904 95.733 205.584C95.669 205.776 95.605 205.84 95.413 205.84ZM81.269 206.416V206.096H80.565V206.416H81.269ZM79.221 207.696H79.861C79.733 207.44 79.733 207.312 79.733 207.312C79.669 207.184 79.605 207.056 79.605 206.928C79.477 206.864 78.965 206.608 78.837 206.608C78.325 206.608 78.197 206.992 78.197 207.12C78.197 207.312 78.517 207.76 79.029 207.76C79.093 207.76 79.157 207.76 79.221 207.696ZM90.741 206.864V206.608H90.549V206.864H90.741ZM97.525 206.672V206.8H97.781V206.672H97.525ZM91.253 206.864C91.445 206.928 91.509 206.992 91.509 207.056H92.149V206.864H91.253ZM87.989 207.12L88.181 207.056L88.117 206.928L87.925 206.992L87.989 207.12ZM98.805 215.696C98.933 215.696 98.997 215.696 99.125 215.568C98.997 214.928 98.933 214.416 98.869 214.032C98.805 213.648 98.741 213.136 98.613 212.496C98.549 212.432 98.485 212.368 98.357 212.176C98.293 211.984 98.229 211.92 98.229 211.856C98.229 211.728 98.293 211.6 98.549 211.408C98.165 211.216 97.973 211.024 98.037 210.832C98.229 210.448 98.229 210 97.909 209.488C97.781 209.296 97.717 209.168 97.717 209.04C97.717 208.912 97.781 208.784 97.909 208.784C98.037 208.72 98.037 208.4 97.781 207.952L97.333 208.336C97.141 208.464 97.013 208.592 96.885 208.656L96.693 208.528V207.888C96.693 207.632 96.885 207.568 97.269 207.568L97.525 207.76V207.248C97.333 207.12 96.629 206.928 96.565 206.928C96.181 206.928 95.349 207.248 95.349 207.632C95.349 207.696 95.413 207.76 95.477 207.824C95.349 207.76 95.477 207.824 95.733 208.016C95.605 208.144 95.605 208.272 95.733 208.464C95.861 208.528 95.925 208.592 95.989 208.656C96.117 208.72 96.117 208.784 96.117 208.784C95.925 208.912 95.797 208.912 95.669 208.912C95.285 208.912 95.093 209.04 95.093 209.232C95.029 209.488 95.029 209.616 94.965 209.68C95.157 209.616 95.413 209.744 95.349 209.872C95.349 209.936 95.285 210 95.221 210C95.157 210 95.157 210 95.157 210.064C95.157 210.128 95.157 210.192 95.093 210.256C95.029 210.32 94.965 210.448 94.965 210.512V211.088C95.221 211.216 96.373 211.6 95.669 211.92C95.861 211.984 96.117 211.984 96.437 211.984C96.565 211.984 96.629 211.984 96.757 211.92H97.141V212.816H97.077V212.88H97.013L97.205 213.072C97.269 213.136 97.269 213.2 97.397 213.264C97.397 213.328 97.461 213.392 97.525 213.392C97.589 213.52 97.653 213.52 97.717 213.584C97.717 213.712 97.781 213.904 97.781 214.16C97.845 214.352 97.973 214.544 98.229 214.672C98.229 214.736 98.229 214.8 98.165 214.864V214.992C98.165 215.184 98.613 215.696 98.805 215.696ZM74.677 208.016C74.805 207.888 74.741 207.824 74.485 207.76V207.888L74.677 208.016ZM77.429 209.04C77.557 208.912 77.493 208.848 77.365 208.72C77.301 208.784 77.237 208.912 77.237 209.04C77.237 209.104 77.301 209.104 77.365 209.104C77.429 209.104 77.429 209.104 77.429 209.04ZM94.453 209.68C94.517 209.68 94.517 209.552 94.517 209.488H94.069C94.069 209.552 94.069 209.68 94.133 209.68C94.197 209.808 94.261 209.808 94.325 209.872C94.325 209.808 94.389 209.808 94.453 209.68ZM75.445 209.744V210L75.893 210.192L76.021 210.128V209.808C76.021 209.68 75.893 209.616 75.637 209.616C75.573 209.68 75.573 209.68 75.509 209.68C75.509 209.68 75.445 209.68 75.445 209.744ZM91.893 209.936V209.68H91.445V209.936H91.893ZM92.661 210.192V210.448H93.045C93.045 210.256 92.917 210.256 92.661 210.192ZM75.637 211.216C75.637 211.088 75.765 211.088 75.893 210.96L76.341 210.832V210.576C76.277 210.512 76.213 210.448 76.149 210.448C76.021 210.384 75.957 210.32 75.893 210.256C75.701 210.64 75.381 210.832 74.869 210.832C74.869 210.896 75.125 211.344 75.445 211.344C75.509 211.344 75.573 211.28 75.637 211.216ZM92.021 211.216L92.661 211.088L92.277 210.896C92.085 210.832 92.021 210.832 91.957 210.768L92.021 211.216ZM78.197 212.496C78.325 212.432 78.325 212.368 78.325 212.24L78.197 212.112C78.133 212.112 78.069 212.112 78.069 212.176H77.941C77.813 212.24 77.749 212.24 77.685 212.24C77.813 212.368 77.877 212.368 77.941 212.432C77.941 212.432 78.069 212.432 78.197 212.496ZM75.125 212.88H75.509C75.445 212.88 75.189 212.624 75.061 212.624C74.869 212.624 74.741 212.752 74.741 212.88C74.805 212.944 74.933 212.944 75.125 212.88ZM76.277 213.136C76.405 213.008 76.469 212.944 76.533 212.944C76.533 212.816 76.469 212.688 76.277 212.624C76.021 212.752 75.893 212.816 75.893 212.88L76.277 213.136ZM92.853 212.944L92.725 213.136H93.429C93.429 213.008 93.301 212.88 93.173 212.752C93.109 212.816 92.981 212.88 92.853 212.944ZM94.069 216.144C94.069 216.144 94.069 216.08 94.133 216.08C94.005 215.824 93.941 215.632 93.941 215.44H93.301C93.429 215.696 93.813 216.144 94.005 216.272C94.069 216.208 94.069 216.208 94.069 216.144Z" fill="#FFBC59"/>
<path d="M137.113 173.968C137.881 173.968 138.393 174.672 138.393 175.376C137.753 181.968 137.305 188.56 137.177 195.216C137.113 196.176 137.113 197.136 137.113 198.096C137.113 199.056 137.049 200.016 137.049 200.976H136.729C136.537 200.976 136.345 200.976 136.281 201.04C136.217 201.104 135.897 201.104 135.449 201.104L135.577 201.232L135.449 201.36H135.577C135.641 201.36 135.705 201.36 135.833 201.296C135.961 201.36 136.153 201.36 136.473 201.36H136.921C136.985 201.36 137.049 201.36 137.049 201.424V201.552H136.729L136.857 201.616L136.729 201.744H137.049C136.985 206.608 136.985 211.472 136.985 216.272C136.985 217.168 136.537 217.616 135.705 217.616L127.257 217.808C126.617 217.808 126.233 217.552 125.977 216.976L125.017 214.288H125.081V214.224H124.953L119.897 200.784C120.153 200.656 120.409 200.528 120.665 200.336L120.345 200.4L120.217 200.336C120.153 200.336 120.025 200.4 119.897 200.4C119.833 200.4 119.769 200.464 119.769 200.464L117.337 194.064L116.889 216.72C116.825 217.552 116.377 218 115.545 218H106.905C106.137 218 105.625 217.424 105.625 216.656C105.753 213.52 105.945 210.32 106.137 207.184C106.457 200.848 106.713 195.344 107.289 188.56L108.441 175.184C108.505 174.416 108.889 174.032 109.721 173.968L115.865 173.776C118.745 173.584 120.665 175.504 121.753 178L121.817 178.064L127.129 191.952L128.153 174.992C128.153 174.16 128.601 173.776 129.497 173.776L137.113 173.968ZM113.689 182.928C113.561 182.928 113.497 182.992 113.433 183.12L113.817 183.312C113.817 183.12 113.753 182.992 113.689 182.928ZM112.537 186.064V186.256H112.921V186.064H112.537ZM113.945 186.576C114.137 186.448 114.201 186.32 114.201 186.128H113.817V186.384C113.881 186.448 113.945 186.512 113.945 186.576ZM116.953 186.512C116.889 186.448 116.761 186.256 116.505 186.128C116.505 186.32 116.569 186.512 116.633 186.64C116.761 186.576 116.825 186.576 116.825 186.576C116.825 186.576 116.889 186.512 116.953 186.512ZM115.481 186.96C115.609 186.96 115.801 186.896 115.993 186.768L116.057 186.64H114.905V186.448H114.393V186.704H114.905V186.64L115.033 186.768C115.161 186.832 115.225 186.896 115.289 186.896C115.289 186.96 115.353 186.96 115.481 186.96ZM116.057 186.704V186.896L116.441 187.024L116.569 186.832L116.057 186.704ZM116.889 187.088C117.081 187.088 117.273 187.024 117.401 186.896C117.209 186.768 117.081 186.704 116.953 186.704C116.889 186.768 116.825 186.832 116.889 186.896V187.088ZM114.777 187.152C114.905 187.344 115.097 187.408 115.353 187.28C115.161 187.152 114.969 187.152 114.777 187.152ZM114.329 190.8V190.544H113.817V190.8H114.329ZM117.209 191.12H116.569V191.376H117.209V191.12ZM117.337 193.424C117.593 193.168 117.529 192.976 117.017 192.784C117.081 193.04 117.145 193.296 117.337 193.424ZM122.009 192.912C122.009 193.296 122.009 193.424 121.369 193.424L121.497 193.616L122.329 193.04L122.009 192.912ZM116.185 193.04V193.424H116.633V193.04H116.185ZM120.729 193.552V193.936H121.049V193.552H120.729ZM115.033 193.744C115.353 194.192 115.609 194.064 115.673 193.744H115.033ZM121.881 194.064C121.945 194.064 121.881 194 121.881 193.936L121.753 193.808C121.753 193.872 121.689 193.936 121.689 194C121.689 194.064 121.753 194.128 121.817 194.256H121.881V194.064ZM117.721 193.936C118.105 194.064 118.425 194.064 118.617 193.936H117.721ZM116.953 194.704V194.448H116.313V194.704H116.953ZM113.561 195.088H114.329C114.329 194.96 114.265 194.832 114.201 194.704V194.576C113.945 194.576 113.689 194.64 113.561 194.768V195.088ZM122.393 194.832H122.137V195.088H122.393V194.832ZM121.305 195.472V195.664H121.753V195.472H121.305ZM127.385 195.472L127.321 195.6L127.385 195.664L127.513 195.472H127.385ZM113.561 196.048L113.945 196.176C114.265 195.984 114.137 195.792 113.561 195.664V196.048ZM114.329 195.984V196.24H114.777V195.984H114.329ZM121.753 196.752L121.881 196.816L122.329 196.752C122.265 196.56 122.201 196.304 122.201 195.984C122.137 196.112 122.073 196.112 122.073 196.176L121.881 196.368C121.753 196.432 121.689 196.432 121.689 196.432C121.689 196.432 121.689 196.496 121.625 196.56C121.689 196.624 121.753 196.688 121.753 196.752ZM119.833 197.264V197.072C119.769 197.072 119.769 197.008 119.769 197.008C119.641 197.008 119.577 196.944 119.513 196.88C119.449 196.88 119.385 197.008 119.385 197.136V197.264H119.833ZM114.009 197.136C113.817 197.264 113.689 197.392 113.689 197.584H114.329L114.009 197.136ZM130.777 197.328V197.136H130.649V197.328H130.777ZM115.993 198.224V197.712H115.609V198.224H115.993ZM113.177 198.224V197.776H112.665V198.224H113.177ZM123.033 198.8H122.457C122.457 198.992 122.649 199.184 123.033 199.184V198.8ZM124.569 199.632C124.185 199.44 123.865 199.312 123.673 199.312C123.673 199.568 123.865 199.696 124.185 199.76C124.249 199.696 124.313 199.696 124.377 199.696L124.569 199.632ZM122.137 199.632L121.945 199.952L122.265 200.08L122.521 199.696L122.137 199.632ZM123.289 199.824L123.161 199.632L122.457 199.824L122.521 200.016L123.289 199.824ZM129.113 199.632L128.921 199.824L129.177 199.952L129.369 199.696L129.113 199.632ZM124.121 200.016L124.185 200.208L124.697 200.144L124.633 199.888L124.121 200.016ZM111.769 200.528C112.025 200.528 112.281 200.464 112.409 200.4L112.281 200.016C111.897 200.208 111.769 200.336 111.769 200.528ZM121.625 200.464L121.753 200.336C121.625 200.208 121.497 200.08 121.305 200.016C121.241 200.144 121.113 200.208 120.857 200.272C120.921 200.336 120.985 200.336 121.049 200.336C121.113 200.336 121.113 200.4 121.177 200.4C121.369 200.464 121.433 200.528 121.433 200.528C121.433 200.528 121.497 200.528 121.625 200.464ZM113.689 200.528L113.561 200.272L113.177 200.464V200.72L113.689 200.528ZM112.537 200.784L112.665 201.36H113.945C113.369 201.04 113.177 200.976 113.369 201.04L113.177 200.912C112.921 200.848 112.729 200.848 112.537 200.784ZM122.265 201.872C122.329 201.872 122.457 201.936 122.585 202C122.521 201.744 122.393 201.616 122.201 201.616C122.137 201.68 122.137 201.744 122.201 201.808C122.201 201.808 122.201 201.872 122.265 201.872ZM128.985 202L128.921 201.936C128.985 202.128 129.049 202.256 129.177 202.32C129.305 202.256 129.305 202.192 129.241 202H128.985ZM122.521 202.064V202.448C122.521 202.448 122.585 202.448 122.649 202.384H122.713C122.777 202.384 122.841 202.32 122.905 202.256H122.969L123.033 202.192C122.777 202.128 122.649 202.064 122.521 202.064ZM125.017 202.192V202.576H125.337L125.209 202.128L125.017 202.192ZM113.689 202.192V202.512H114.329V202.192H113.689ZM123.545 203.024L123.225 202.96L123.097 203.152L123.417 203.28L123.545 203.024ZM114.457 203.536V203.088H114.073V203.536H114.457ZM122.329 203.536C122.137 203.536 122.009 203.728 122.201 203.792C122.265 203.792 122.393 203.792 122.585 203.728L122.329 203.536ZM125.017 204.112C124.953 204.176 124.953 204.176 124.825 204.176H124.697C124.697 204.304 124.825 204.432 124.953 204.624C125.017 204.752 125.145 204.88 125.209 204.944C125.337 204.88 125.465 204.816 125.593 204.688C125.721 204.56 125.913 204.496 126.105 204.304C125.913 204.368 125.785 204.368 125.721 204.368H125.593C125.529 204.432 125.465 204.432 125.465 204.432L125.337 204.496C125.273 204.432 125.209 204.368 125.209 204.304C125.209 204.24 125.209 204.176 125.081 204.112H125.017ZM122.841 204.24L122.969 204.496L123.417 204.368L123.289 204.176L122.841 204.24ZM113.689 204.752V204.56C113.433 204.56 113.305 204.56 113.305 204.624C113.177 204.688 113.177 204.752 113.177 204.816L113.561 205.072C113.625 204.944 113.689 204.816 113.689 204.752ZM126.745 204.88L126.233 205.008H126.105C126.105 205.008 125.977 205.008 125.913 205.072C125.913 205.072 125.977 205.008 125.977 204.944H125.465C125.401 205.008 125.337 205.008 125.209 205.008C125.273 205.2 125.337 205.264 125.465 205.264L125.593 205.392C125.657 205.328 125.721 205.328 125.785 205.2H126.361L126.873 205.072L126.745 204.88ZM127.321 205.072L127.001 205.2L127.257 205.584L127.513 205.456L127.321 205.072ZM122.393 205.392C122.521 205.456 122.713 205.456 122.969 205.392C122.841 205.2 122.649 205.136 122.393 205.136V205.392ZM116.825 205.968V205.584H116.377V205.968H116.825ZM125.593 206.032C125.913 206.224 126.233 206.224 126.489 206.16V205.968C126.489 205.84 126.361 205.712 126.105 205.648L125.593 205.776V206.032ZM123.609 205.776V206.096H123.865V205.776H123.609ZM124.697 206.352L125.209 206.224C125.081 206.032 125.081 206.096 124.697 205.968L124.441 205.904L124.697 206.352ZM129.305 206.864L128.921 207.12C129.113 207.184 129.241 207.248 129.369 207.248C129.497 207.184 129.497 206.992 129.305 206.864ZM126.361 207.056L126.105 207.12L126.489 208.016L126.745 207.952L126.361 207.056ZM124.057 207.44V207.12H123.609V207.44H124.057ZM123.993 208.016C123.929 207.952 123.929 207.76 124.057 207.568L123.417 207.76C123.417 207.888 123.545 207.888 123.673 207.888C123.673 207.952 123.737 207.952 123.801 207.952C123.801 207.952 123.865 207.952 123.993 208.016ZM128.217 209.04C128.345 209.232 128.601 209.168 128.985 209.04C128.473 208.784 128.217 208.592 128.153 208.4V208.08C128.153 208.08 128.153 208.016 128.217 208.016L128.153 207.952C127.961 208.016 127.833 208.08 127.769 208.08C127.705 208.144 127.641 208.144 127.449 208.208L127.321 208.336L127.129 208.464C127.257 208.464 127.385 208.528 127.577 208.528C127.641 208.528 127.769 208.528 127.961 208.592C128.025 208.784 128.089 208.912 128.217 209.04ZM125.849 208.784C126.105 208.528 125.977 208.4 125.593 208.208L125.849 208.784ZM126.873 209.744C127.193 209.68 127.385 209.616 127.449 209.552C127.449 209.552 127.513 209.552 127.641 209.424L127.769 209.296L127.897 209.232L127.705 208.784H127.449C127.385 208.784 127.257 208.72 127.129 208.656C127.129 208.784 127.193 208.912 127.257 209.04C127.257 209.04 127.257 209.104 127.321 209.104V209.232C127.385 209.296 127.385 209.36 127.321 209.424C127.321 209.488 127.129 209.552 126.873 209.744ZM113.689 209.232V208.784H113.305V209.232H113.689ZM125.145 210H125.209V210.064C125.401 210.128 125.465 210.192 125.465 210.192L126.873 209.424C126.553 209.552 126.297 209.552 126.169 209.552C126.105 209.616 125.977 209.68 125.721 209.68C125.465 209.744 125.209 209.808 125.017 209.936C125.081 210 125.145 210 125.145 210ZM130.137 209.424C130.137 209.808 130.137 209.872 129.497 209.872L129.625 210.128L130.457 209.488L130.137 209.424ZM113.817 209.936C114.201 209.808 114.393 209.68 114.457 209.616C114.329 209.552 114.137 209.488 113.817 209.488V209.936ZM129.433 210.704H129.113L129.049 211.024L129.369 211.088L129.433 210.704ZM115.225 211.216V210.832H114.585V211.216H115.225ZM127.705 211.536L128.281 211.408L127.833 210.96L127.449 211.344C127.513 211.408 127.577 211.408 127.577 211.408C127.641 211.408 127.705 211.536 127.705 211.536ZM128.601 211.344C128.473 211.536 128.537 211.6 128.665 211.6C128.793 211.6 128.857 211.6 128.921 211.536L128.857 211.472C128.793 211.472 128.729 211.472 128.601 211.344ZM129.625 211.984L129.689 211.92C129.561 211.92 129.433 211.856 129.305 211.856C129.305 211.92 129.177 211.92 129.113 211.92H129.049L128.793 212.304V212.368H128.857L129.113 211.984C129.305 211.92 129.433 211.92 129.625 211.984ZM130.457 211.984H130.521L130.457 211.92C130.329 211.984 130.201 212.112 130.137 212.24H130.073L130.137 212.304C130.201 212.176 130.265 212.048 130.457 211.984ZM126.233 213.072C126.233 213.072 126.361 213.008 126.489 212.816L125.849 212.944H125.721C125.721 212.944 125.593 213.008 125.465 213.008C125.593 213.136 125.593 213.328 125.465 213.456C125.721 213.456 125.913 213.392 125.977 213.264C126.297 213.072 126.361 213.008 126.233 213.072Z" fill="#FFBC59"/>
<path d="M154.516 207.184C158.548 207.184 159.444 204.816 159.892 202.192C159.956 201.808 160.084 201.36 160.084 200.784C160.148 200.272 160.212 199.504 160.276 198.352C160.468 196.048 160.596 193.424 160.724 190.544V190.48L161.492 175.248C161.556 174.416 161.94 174.032 162.772 174.032H170.644C171.348 174.032 171.924 174.672 171.924 175.376L171.348 190.8V195.024C171.348 198.16 171.092 201.424 170.516 204.496C169.876 207.568 168.66 210.576 166.612 212.944C163.092 216.912 158.036 218.128 152.916 218C150.036 217.936 146.388 217.488 144.212 215.44C142.036 213.456 141.14 210.448 140.82 207.568C140.5 205.264 140.564 202.768 140.564 200.4C140.628 197.072 140.884 193.744 141.204 190.416L142.804 175.184C142.868 174.416 143.316 174.032 144.084 174.032H151.956C152.66 174.032 153.3 174.736 153.236 175.44L152.02 190.864L151.444 199.312C151.06 203.408 151.252 207.184 154.516 207.184ZM170.452 176.464V176.208C170.452 176.016 170.58 175.312 170.004 175.312C169.556 175.312 169.492 176.144 169.492 176.272V176.656C169.556 176.784 169.556 176.976 169.556 177.36V178.128C169.62 178.512 169.62 178.768 169.62 178.896H170.324C170.26 178.896 170.26 178.896 170.26 178.832C170.26 178.768 170.196 178.768 170.196 178.768C170.196 178.384 170.26 178 170.388 177.36C170.452 176.848 170.452 176.528 170.452 176.464ZM143.06 183.632L142.996 185.936C142.996 186 142.996 186 143.06 186.064C143.124 186.064 143.188 186.128 143.188 186.192C143.252 186.192 143.38 186.128 143.508 185.936C143.636 185.68 143.7 185.424 143.7 185.168C143.572 185.296 143.508 185.296 143.444 185.296C143.444 185.232 143.38 185.232 143.316 185.232V185.104C143.444 185.04 143.636 184.848 143.764 184.656L144.148 176.528H143.828C143.7 176.528 143.636 176.592 143.572 176.656C143.572 176.72 143.444 176.72 143.252 176.72C143.572 176.912 143.572 176.976 143.7 177.424V177.872C143.7 178.064 143.572 178.192 143.444 178.32C143.444 178.32 143.508 178.576 143.444 178.64C143.444 178.704 143.38 178.768 143.316 178.832L143.252 179.664C143.188 179.728 143.124 179.792 143.124 179.856C143.124 179.92 143.188 179.984 143.188 180.048C143.252 180.112 143.316 180.176 143.316 180.24C143.252 180.56 143.188 180.752 143.124 180.944L142.996 181.392C142.996 181.456 143.06 181.584 143.124 181.712C143.188 181.84 143.252 181.968 143.252 182.032C143.252 182.224 143.316 182.352 143.316 182.48C143.38 182.736 143.38 182.864 143.38 182.864C143.38 182.928 143.316 183.056 143.252 183.248C143.124 183.376 143.06 183.504 143.06 183.632ZM143.444 191.568V190.8C143.188 190.864 143.06 190.864 142.996 190.864C142.868 190.864 142.804 190.928 142.74 190.928L142.676 191.184C142.804 191.312 142.996 191.504 143.444 191.568ZM163.668 191.248C163.54 191.248 163.412 191.184 163.284 191.184V191.376C163.284 191.44 163.348 191.504 163.412 191.504C163.412 191.504 163.476 191.504 163.476 191.44C163.54 191.44 163.54 191.312 163.668 191.248ZM143.316 193.296C142.932 193.488 142.612 193.68 142.548 193.872C142.612 194 142.676 194.064 142.868 194.064C143.38 194.064 143.316 193.616 143.316 193.296ZM165.268 197.52H164.82L164.692 197.776H165.204C165.332 197.712 165.332 197.648 165.268 197.52ZM164.052 199.44C163.988 199.376 163.924 199.376 163.796 199.376H163.668C163.668 199.44 163.604 199.44 163.54 199.44C163.668 199.504 163.732 199.568 163.732 199.632C163.796 199.632 163.86 199.632 163.924 199.568L164.052 199.44ZM162.9 204.368V204.24L162.708 204.368V204.496L162.9 204.368ZM163.732 205.264L163.796 205.008H163.604L163.54 205.264H163.732ZM159.508 207.056H159.06L158.932 207.312H159.508C159.572 207.248 159.572 207.184 159.508 207.056ZM155.604 207.888C155.54 207.888 155.476 207.824 155.348 207.824C155.156 207.824 154.836 207.76 154.26 207.76C154.132 207.888 154.068 207.952 154.068 208.016C154.26 208.528 154.58 208.4 154.9 208.4C155.284 208.4 155.348 208.4 155.604 207.888ZM157.524 207.888L157.332 207.824L157.268 208.016L157.396 208.08L157.524 207.888ZM157.46 208.976H157.268L157.204 210.128H157.268L157.46 208.976ZM152.98 209.872L153.684 209.808C153.556 209.488 153.236 209.36 153.172 209.296C153.044 209.424 152.916 209.488 152.916 209.616C152.98 209.744 152.98 209.744 152.98 209.872Z" fill="#FFBC59"/>
<path d="M204.273 183.44L195.57 183.76L195.057 202.576C194.865 202.576 194.674 202.704 194.546 202.896C194.801 203.024 194.801 203.088 194.993 203.088H195.057L194.993 204.624H194.801C194.738 204.688 194.674 204.752 194.546 204.752C194.417 204.816 194.289 204.88 194.225 204.88C194.354 205.072 194.417 205.264 194.417 205.392V205.584L194.29 205.712H194.225C194.225 205.776 194.161 205.84 194.161 205.904L194.354 206.544L194.482 207.12C194.482 207.184 194.418 207.312 194.29 207.44C194.161 207.568 194.098 207.632 194.098 207.696C194.098 207.76 194.161 207.824 194.161 207.952L194.29 208.144C194.354 208.272 194.354 208.4 194.29 208.528C194.226 208.848 194.29 209.04 194.482 209.04H194.865L194.801 209.424C194.801 209.424 194.738 209.296 194.609 209.168C194.546 209.36 194.418 209.424 194.29 209.424C194.161 209.424 194.034 209.424 193.906 209.488C193.906 209.488 193.842 209.488 193.842 209.552H193.777V209.68C193.777 209.808 193.842 209.808 193.906 209.808C193.969 209.808 194.033 209.744 194.225 209.744C194.289 209.744 194.354 209.808 194.417 209.808V209.936C194.417 210 194.354 210.128 194.29 210.192C194.226 210.32 194.161 210.448 194.161 210.576C194.29 210.64 194.418 210.64 194.482 210.64L194.674 210.768C194.802 210.896 194.674 211.024 194.482 211.088C194.226 211.152 194.098 211.216 194.098 211.28C194.354 211.472 194.417 211.6 194.417 211.664C194.417 211.792 194.29 211.92 194.034 211.984C194.034 212.112 194.098 212.24 194.161 212.304C194.161 212.432 194.289 212.496 194.417 212.56C194.289 212.624 194.289 212.688 194.225 212.688C194.161 212.752 194.098 212.752 194.098 212.816C194.098 213.008 194.098 213.136 194.161 213.264C194.225 213.456 194.225 213.648 194.225 213.776C194.225 213.776 194.034 214.032 194.034 214.16C194.034 214.224 194.097 214.352 194.225 214.48C194.354 214.608 194.417 214.672 194.417 214.736C194.417 214.864 194.354 214.992 194.225 215.12C194.097 215.312 194.034 215.44 194.034 215.504C194.034 215.632 194.289 216.08 194.609 216.08H194.674L194.609 216.528C194.609 217.36 194.161 217.744 193.393 217.808L184.689 218C183.986 218 183.281 217.36 183.41 216.656L183.665 206.416C183.665 206.352 183.73 206.352 183.73 206.352H183.665L183.921 198.48L184.178 198.608C184.242 198.608 184.305 198.608 184.305 198.544V198.416C184.177 198.352 184.049 198.352 183.921 198.416L184.305 184.72L175.473 186.384C174.641 186.576 173.938 186 173.938 185.104L174.322 175.44C174.385 174.608 174.77 174.224 175.602 174.16L204.338 173.584C205.106 173.584 205.682 174.16 205.682 174.928L205.49 182.16C205.426 182.992 205.042 183.376 204.273 183.44ZM179.57 180.944H179.186V181.136H179.57V180.944ZM185.137 181.136H184.818V181.392H185.137V181.136ZM177.906 181.52L177.521 181.264H177.137C176.945 181.52 176.882 181.712 177.01 181.904C177.138 181.904 177.394 181.904 177.65 182.032L177.906 181.776V181.52ZM183.025 181.264V181.648C183.154 181.712 183.217 181.712 183.281 181.712L183.346 181.648H183.473C183.537 181.648 183.538 181.52 183.538 181.456V181.264H183.025ZM174.833 181.52H174.258V181.712H174.833V181.52ZM179.057 181.52C178.801 181.52 178.674 181.584 178.546 181.712C178.417 181.84 178.29 181.968 178.161 182.032C178.225 182.16 178.417 182.16 178.546 182.224C178.609 182.288 178.738 182.288 178.93 182.16C178.801 182.032 178.865 181.904 179.057 181.84C179.057 181.776 179.122 181.776 179.186 181.712C179.314 181.712 179.313 181.648 179.441 181.648C179.313 181.584 179.249 181.584 179.186 181.52H179.057ZM177.202 182.032V182.288L178.033 182.16L177.202 182.032ZM179.826 182.608H179.57L179.441 182.544H179.314C179.058 182.864 178.93 183.12 179.57 183.184L179.826 183.056V182.608ZM184.305 182.8H184.113C184.113 182.928 184.178 183.056 184.37 183.184C184.498 183.056 184.561 182.928 184.561 182.736C184.433 182.736 184.369 182.8 184.305 182.8ZM177.842 183.12H177.458V183.376H177.842V183.12ZM181.874 183.44V183.248C181.49 183.184 181.233 183.12 180.977 183.12C180.721 183.12 180.594 183.248 180.465 183.504C180.594 183.504 180.721 183.504 180.85 183.568H181.042C181.105 183.632 181.17 183.632 181.234 183.632C181.618 183.696 181.81 183.632 181.874 183.44ZM185.714 201.872L185.585 201.616L185.458 201.744L185.266 201.872L185.393 201.936V202L185.714 201.872ZM192.626 202.384H192.242V202.512C192.305 202.512 192.37 202.576 192.37 202.576C192.37 202.576 192.37 202.512 192.434 202.512C192.497 202.512 192.497 202.512 192.626 202.384ZM185.842 203.728C185.842 203.6 185.777 203.536 185.585 203.472C185.457 203.536 185.393 203.408 185.393 203.152C185.073 203.664 184.753 204.176 184.945 204.752L184.882 204.944C184.818 204.944 184.818 205.008 184.818 205.072C184.818 205.2 184.882 205.264 184.945 205.328L184.753 205.52C184.689 205.584 184.626 205.584 184.626 205.712C184.626 205.712 184.689 205.84 184.818 205.904C184.946 206.032 185.01 206.096 185.01 206.16C185.01 206.288 184.945 206.48 184.753 206.736V207.184C184.817 207.248 184.817 207.44 184.753 207.76L184.626 209.168C184.626 209.36 184.561 209.616 184.561 209.872C184.625 209.936 184.689 209.936 184.753 209.936C184.817 210 184.946 210 185.01 210.064C185.266 210.128 185.394 210.128 185.458 210.128C185.521 210.128 185.586 210.128 185.65 210.064L185.714 210C185.714 209.936 185.649 209.872 185.585 209.872C185.457 209.808 185.457 209.744 185.393 209.68C185.585 209.68 185.649 209.616 185.777 209.424C185.521 209.296 185.521 209.104 185.585 208.912C185.649 208.656 185.585 208.272 185.585 207.76C185.521 207.76 185.458 207.696 185.458 207.696C185.714 207.568 185.777 207.44 185.777 207.248L185.585 206.864C185.521 206.608 185.458 206.416 185.458 206.224C185.458 206.096 185.394 205.904 185.458 205.776C185.458 205.584 185.393 205.52 185.329 205.456C185.521 205.392 185.714 204.752 185.714 204.56L185.777 203.984L185.842 203.728ZM194.93 205.776V205.968H194.865C194.801 205.904 194.865 205.84 194.865 205.84C194.929 205.84 194.93 205.84 194.93 205.776ZM193.65 208.272H193.458C193.394 208.272 193.329 208.272 193.266 208.208V208.4L193.521 208.464C193.65 208.4 193.65 208.4 193.65 208.272ZM185.521 213.008L185.393 210.384C185.329 210.384 185.266 210.32 185.202 210.32C185.074 210.256 185.074 210.192 185.01 210.192C184.818 210.32 184.434 210.832 184.497 210.96C184.497 211.024 184.497 211.152 184.561 211.28C184.625 211.344 184.626 211.408 184.626 211.536C184.562 211.92 184.561 212.176 184.561 212.304C184.561 212.368 184.497 212.432 184.497 212.432C184.497 212.496 184.497 212.56 184.434 212.624C184.562 212.816 184.561 212.944 184.497 212.944C184.434 212.944 184.37 212.944 184.37 213.008C184.37 213.2 184.369 213.328 184.497 213.392C184.497 213.456 184.626 213.712 184.818 213.968C184.882 213.968 185.009 213.904 185.137 213.904C185.266 213.712 185.329 213.52 185.329 213.328C185.201 213.136 185.329 213.072 185.521 213.008Z" fill="#FFBC59"/>
</svg>
