<svg width="29" height="18" viewBox="0 0 29 18" fill="none" xmlns="http://www.w3.org/2000/svg">
<path d="M20.7154 11.4292H19.4331L18.9786 11.1659C20.5693 10.0541 21.5269 8.61074 21.5269 7.0406C21.5269 3.53949 16.8037 0.701538 10.9768 0.701538C5.14985 0.701538 0.426636 3.53949 0.426636 7.0406C0.426636 10.5417 5.14985 13.3797 10.9768 13.3797C13.59 13.3797 15.9921 12.8043 17.8425 11.8485L18.2807 12.1216V12.892L26.3962 17.7585L28.8146 16.3054L20.7154 11.4292ZM10.9768 11.4292C6.93526 11.4292 3.67283 9.46895 3.67283 7.0406C3.67283 4.61225 6.93526 2.65202 10.9768 2.65202C15.0183 2.65202 18.2807 4.61225 18.2807 7.0406C18.2807 9.46895 15.0183 11.4292 10.9768 11.4292Z" fill="#FFBC59"/>
</svg>
